<svg xmlns="http://www.w3.org/2000/svg" width="50" height="50" viewBox="0 0 570 570" version="1.1"><path d="M 93.667 4.667 C 92.258 6.075, 93.210 8.377, 99.604 19.024 C 106.509 30.524, 110.783 35.001, 119.773 40.152 C 123.367 42.211, 125.486 44.228, 126.431 46.488 C 127.594 49.273, 127.671 59.921, 126.913 113.042 L 126.010 176.282 122.639 180.395 C 117.570 186.582, 95.422 208.726, 68.010 235.014 C 54.541 247.931, 41.569 260.388, 39.184 262.695 C 36.132 265.647, 34.943 267.552, 35.173 269.122 C 35.463 271.101, 58.323 293.688, 90.569 323.856 C 112.869 344.719, 125.057 357.497, 125.995 360.998 C 126.537 363.021, 126.981 397.658, 127.047 443 L 127.161 521.500 119.615 525.313 C 109.379 530.485, 102.453 539.752, 98.396 553.708 C 96.047 561.791, 97.263 562.341, 106.697 557.464 C 116.918 552.181, 124.702 544.874, 129.043 536.490 C 131.181 532.360, 134.674 527.788, 138.198 524.507 C 143 520.036, 144.729 519.069, 149.198 518.356 C 152.114 517.891, 197.716 517.508, 250.535 517.505 L 346.570 517.500 352.379 514 C 355.710 511.993, 367.426 501.595, 379.844 489.625 C 412.513 458.133, 430.272 441.470, 443.102 430.271 C 449.884 424.351, 455.400 418.677, 456.378 416.615 C 457.845 413.524, 458.053 408.732, 458.055 377.943 C 458.057 350.784, 458.362 342.084, 459.399 339.650 C 460.844 336.257, 483.969 312.633, 504.085 294 C 523.885 275.660, 528 271.439, 528 269.468 C 528 267.525, 527.104 266.618, 495.953 237.010 C 485.254 226.841, 473.440 215.608, 469.701 212.049 C 458.093 201, 458.855 204.429, 459.201 164.802 C 459.568 122.752, 460.651 126.300, 442.688 110.723 C 435.903 104.838, 424.343 93.888, 417.001 86.389 C 403.848 72.954, 363.513 36.213, 355.805 30.644 C 352.956 28.586, 349.986 27.544, 345.176 26.916 C 337.756 25.947, 138.934 25.663, 134.175 26.615 C 131.472 27.156, 130.486 26.526, 124.335 20.331 C 117.565 13.512, 110.450 9.201, 100 5.586 C 94.845 3.803, 94.571 3.763, 93.667 4.667 M 99.060 14.621 C 107.982 31.145, 112.966 35.727, 127.337 40.615 C 136.786 43.828, 137.647 43.727, 134.663 39.750 C 133.321 37.962, 131.003 34.062, 129.510 31.083 C 123.762 19.606, 110.878 9.743, 98.653 7.460 L 94.806 6.741 99.060 14.621 M 213 72.358 C 213 73.104, 217.838 79.538, 223.750 86.655 C 229.662 93.771, 237.832 103.773, 241.905 108.881 C 245.978 113.989, 250.395 118.580, 251.721 119.084 C 253.046 119.588, 271.634 120, 293.029 120 L 331.927 120 338.713 126.185 C 342.446 129.586, 353.712 140.494, 363.750 150.424 L 382 168.480 382 181.517 L 382 194.555 375.792 200.028 C 372.378 203.037, 366.068 208.537, 361.770 212.250 L 353.956 219 285.478 219 L 217 219 217 244 L 217 269 291.250 268.994 C 336.413 268.991, 366.871 268.607, 369 268.014 C 370.925 267.477, 375.039 264.892, 378.142 262.269 C 389.699 252.499, 417.731 227.071, 420.810 223.563 L 424 219.930 424 184.200 C 424 152.037, 423.825 148.154, 422.250 145.319 C 421.288 143.587, 411.275 133.730, 400 123.415 C 388.725 113.100, 373.290 98.775, 365.700 91.580 C 358.109 84.386, 349.402 76.813, 346.349 74.750 L 340.798 71 276.899 71 C 223.744 71, 213 71.228, 213 72.358 M 166 277.184 L 166 452.368 175.250 443.405 C 180.338 438.475, 190.237 429.100, 197.250 422.572 L 210 410.704 210 276.067 L 210 141.431 204.250 136.635 C 201.088 133.997, 191.449 125.125, 182.831 116.920 C 174.213 108.714, 166.900 102, 166.581 102 C 166.261 102, 166 180.833, 166 277.184 M 108 197.867 C 98.375 207.584, 83.286 222.502, 74.469 231.017 C 65.653 239.533, 53.615 251.158, 47.719 256.851 C 41.824 262.544, 37 267.750, 37 268.420 C 37 269.756, 56.530 289.104, 81.500 312.505 C 90.300 320.752, 103.800 333.665, 111.500 341.199 L 125.500 354.899 125.777 339.775 L 126.054 324.651 122.777 321.216 C 119.389 317.665, 79.476 281.014, 70.186 272.923 C 66.703 269.891, 65.128 267.831, 65.516 266.819 C 65.838 265.979, 71.133 260.839, 77.281 255.396 C 89.180 244.863, 112.014 223.847, 120.735 215.401 L 126 210.303 126 199.791 C 126 194.009, 126.286 187.191, 126.636 184.640 C 126.986 182.088, 126.873 180.045, 126.386 180.100 C 125.899 180.155, 117.625 188.150, 108 197.867 M 457 216.657 L 457 231.826 473.250 247.268 C 482.188 255.761, 491.016 264.036, 492.870 265.657 L 496.240 268.603 489.870 274.632 C 478.260 285.621, 467.268 295.677, 462.604 299.575 L 458 303.424 458 319.823 L 458 336.223 481.856 312.862 C 494.976 300.013, 510.029 285.675, 515.306 281 C 520.583 276.325, 525.216 271.413, 525.600 270.085 C 526.182 268.078, 525.556 266.994, 521.900 263.670 C 513.080 255.654, 485.245 229.152, 471.300 215.494 L 457 201.487 457 216.657 M 216.784 301.500 C 216.628 314.150, 216.661 325.063, 216.857 325.750 C 217.138 326.735, 232.252 327, 288.119 327 L 359.024 327 370.260 337.568 C 376.441 343.381, 381.862 348.789, 382.308 349.586 C 382.754 350.382, 382.806 356.379, 382.424 362.911 L 381.729 374.789 356.705 399.144 C 342.941 412.540, 330.740 424.175, 329.590 425 C 327.859 426.243, 321.348 426.586, 291.660 427 L 255.820 427.500 252.660 431.457 C 250.922 433.633, 242.743 443.308, 234.484 452.957 C 226.225 462.605, 218.422 471.976, 217.144 473.781 L 214.820 477.061 273.660 476.781 C 332.465 476.500, 332.502 476.499, 336.700 474.255 C 344.210 470.241, 421.050 398.677, 423.121 393.768 C 424.965 389.398, 425.113 330.932, 423.290 326.819 C 422.637 325.345, 418.538 321.070, 414.182 317.319 C 409.826 313.569, 398.996 304.095, 390.114 296.267 C 381.233 288.439, 372.687 281.373, 371.124 280.564 C 368.713 279.317, 356.819 279.049, 292.675 278.797 L 217.069 278.500 216.784 301.500 M 127.349 524.364 C 111.943 529.831, 106.186 535.904, 100.353 552.845 C 99.530 555.234, 99.085 557.418, 99.364 557.697 C 100.287 558.620, 110.395 553.359, 116.728 548.658 C 121.869 544.843, 123.589 542.767, 126.577 536.768 C 128.569 532.771, 132.047 527.587, 134.307 525.250 C 136.567 522.913, 137.985 521.026, 137.458 521.059 C 136.931 521.091, 132.382 522.579, 127.349 524.364" stroke="none" fill="#171514" fill-rule="evenodd"/><path d="M 99.060 14.621 C 107.982 31.145, 112.966 35.727, 127.337 40.615 C 136.786 43.828, 137.647 43.727, 134.663 39.750 C 133.321 37.962, 131.003 34.062, 129.510 31.083 C 123.762 19.606, 110.878 9.743, 98.653 7.460 L 94.806 6.741 99.060 14.621 M 213 72.358 C 213 73.104, 217.838 79.538, 223.750 86.655 C 229.662 93.771, 237.832 103.773, 241.905 108.881 C 245.978 113.989, 250.395 118.580, 251.721 119.084 C 253.046 119.588, 271.634 120, 293.029 120 L 331.927 120 338.713 126.185 C 342.446 129.586, 353.712 140.494, 363.750 150.424 L 382 168.480 382 181.517 L 382 194.555 375.792 200.028 C 372.378 203.037, 366.068 208.537, 361.770 212.250 L 353.956 219 285.478 219 L 217 219 217 244 L 217 269 291.250 268.994 C 336.413 268.991, 366.871 268.607, 369 268.014 C 370.925 267.477, 375.039 264.892, 378.142 262.269 C 389.699 252.499, 417.731 227.071, 420.810 223.563 L 424 219.930 424 184.200 C 424 152.037, 423.825 148.154, 422.250 145.319 C 421.288 143.587, 411.275 133.730, 400 123.415 C 388.725 113.100, 373.290 98.775, 365.700 91.580 C 358.109 84.386, 349.402 76.813, 346.349 74.750 L 340.798 71 276.899 71 C 223.744 71, 213 71.228, 213 72.358 M 166 277.184 L 166 452.368 175.250 443.405 C 180.338 438.475, 190.237 429.100, 197.250 422.572 L 210 410.704 210 276.067 L 210 141.431 204.250 136.635 C 201.088 133.997, 191.449 125.125, 182.831 116.920 C 174.213 108.714, 166.900 102, 166.581 102 C 166.261 102, 166 180.833, 166 277.184 M 108 197.867 C 98.375 207.584, 83.286 222.502, 74.469 231.017 C 65.653 239.533, 53.615 251.158, 47.719 256.851 C 41.824 262.544, 37 267.750, 37 268.420 C 37 269.756, 56.530 289.104, 81.500 312.505 C 90.300 320.752, 103.800 333.665, 111.500 341.199 L 125.500 354.899 125.777 339.775 L 126.054 324.651 122.777 321.216 C 119.389 317.665, 79.476 281.014, 70.186 272.923 C 66.703 269.891, 65.128 267.831, 65.516 266.819 C 65.838 265.979, 71.133 260.839, 77.281 255.396 C 89.180 244.863, 112.014 223.847, 120.735 215.401 L 126 210.303 126 199.791 C 126 194.009, 126.286 187.191, 126.636 184.640 C 126.986 182.088, 126.873 180.045, 126.386 180.100 C 125.899 180.155, 117.625 188.150, 108 197.867 M 457 216.657 L 457 231.826 473.250 247.268 C 482.188 255.761, 491.016 264.036, 492.870 265.657 L 496.240 268.603 489.870 274.632 C 478.260 285.621, 467.268 295.677, 462.604 299.575 L 458 303.424 458 319.823 L 458 336.223 481.856 312.862 C 494.976 300.013, 510.029 285.675, 515.306 281 C 520.583 276.325, 525.216 271.413, 525.600 270.085 C 526.182 268.078, 525.556 266.994, 521.900 263.670 C 513.080 255.654, 485.245 229.152, 471.300 215.494 L 457 201.487 457 216.657 M 216.784 301.500 C 216.628 314.150, 216.661 325.063, 216.857 325.750 C 217.138 326.735, 232.252 327, 288.119 327 L 359.024 327 370.260 337.568 C 376.441 343.381, 381.862 348.789, 382.308 349.586 C 382.754 350.382, 382.806 356.379, 382.424 362.911 L 381.729 374.789 356.705 399.144 C 342.941 412.540, 330.740 424.175, 329.590 425 C 327.859 426.243, 321.348 426.586, 291.660 427 L 255.820 427.500 252.660 431.457 C 250.922 433.633, 242.743 443.308, 234.484 452.957 C 226.225 462.605, 218.422 471.976, 217.144 473.781 L 214.820 477.061 273.660 476.781 C 332.465 476.500, 332.502 476.499, 336.700 474.255 C 344.210 470.241, 421.050 398.677, 423.121 393.768 C 424.965 389.398, 425.113 330.932, 423.290 326.819 C 422.637 325.345, 418.538 321.070, 414.182 317.319 C 409.826 313.569, 398.996 304.095, 390.114 296.267 C 381.233 288.439, 372.687 281.373, 371.124 280.564 C 368.713 279.317, 356.819 279.049, 292.675 278.797 L 217.069 278.500 216.784 301.500 M 127.349 524.364 C 111.943 529.831, 106.186 535.904, 100.353 552.845 C 99.530 555.234, 99.085 557.418, 99.364 557.697 C 100.287 558.620, 110.395 553.359, 116.728 548.658 C 121.869 544.843, 123.589 542.767, 126.577 536.768 C 128.569 532.771, 132.047 527.587, 134.307 525.250 C 136.567 522.913, 137.985 521.026, 137.458 521.059 C 136.931 521.091, 132.382 522.579, 127.349 524.364" stroke="none" fill="#ebc649" fill-rule="evenodd"/></svg>